# xmcd
#
# Track frame offsets:
#	150
#	67496
#	93066
#	111436
#	176419
#	232889
#	235172
#	241993
#
# Disc length: 3268 seconds
#
# Revision: 0
# Processed by: cddbd v1.5.2PL0 Copyright (c) Steve Scherf et al.
# Submitted via: SynApp - FreeCDDB Version: 2.3
#
DISCID=630cc208
DTITLE=Jimi Hendrix and Jack Bruce Jams  - Jimi Hendrix and Jack Bruce Jams 
DYEAR=1968
DGENRE=Bluegrass
TTITLE0=12 Bar Jam in E #1.mp3
TTITLE1=12 Bar Jam in E #2.mp3
TTITLE2=03 - 12 Bar Jam in E #3.mp3
TTITLE3=04 - 12 Bar Jam in D.mp3
TTITLE4=06 - Everything's Gonna be Alright.mp3
TTITLE5=07 - Sunshine of your Love Riff 1.mp3
TTITLE6=08 - Bruce Bass Jam.mp3
TTITLE7=09 - Sunshine of your Love Riff 2.mp3
EXTD=
EXTT0=
EXTT1=
EXTT2=
EXTT3=
EXTT4=
EXTT5=
EXTT6=
EXTT7=
PLAYORDER=
